<svg width="590" height="242" xmlns="http://www.w3.org/2000/svg" xmlns:xlink="http://www.w3.org/1999/xlink"><defs><path id="a" d="M0 .919h589.172v345.588H0z"/></defs><g transform="translate(.411 -105.154)" fill="none" fill-rule="evenodd"><mask id="b" fill="#fff"><use xlink:href="#a"/></mask><path d="M-33.038 280.607S72.787 180.261 119.821 184.9c47.033 4.637 207.87 91.914 288.919 95.708 81.049 3.795 221.729 4.638 221.729 4.638l-4.62 71.255-656.367 3.794-2.52-79.687z" fill="#F0F0F0" style="mix-blend-mode:multiply" mask="url(#b)" transform="matrix(-1 0 0 1 597.431 0)"/><path d="M-27.531 288.734s136.907-176.983 210.82-182.897c73.913-5.913 181.423 179.095 262.475 182.897 81.052 3.801 181.96-95.372 181.96-95.372l3.662 171.403-656.398 3.801-2.52-79.832z" fill="#F0F0F0" style="mix-blend-mode:multiply" mask="url(#b)"/><path d="M-131.233 294.206S25.36 111.213 126.86 111.213c101.502 0 157.018 176.143 210.432 179.568 27.744 1.78 176.222-125.16 225.85-125.16 49.628 0 107.81 33.164 107.81 33.164l4.485 171.492-803.585 3.804-3.085-79.875z" fill="#F0F0F0" style="mix-blend-mode:multiply" mask="url(#b)"/><path d="M-14.683 282.332s293.099-100.62 367.11-106.514c74.01-5.894 58.872 87.87 140.031 91.66 81.16 3.788 228.34-78.188 228.34-78.188l44.574 165.454-780.055 4.631v-77.043z" fill="#F0F0F0" style="mix-blend-mode:multiply" mask="url(#b)"/></g></svg>